<?xml version="1.0" encoding="UTF-8" standalone="no"?>
<!DOCTYPE svg PUBLIC "-//W3C//DTD SVG 1.1//EN"
 "http://www.w3.org/Graphics/SVG/1.1/DTD/svg11.dtd">
<!-- Generated by graphviz version 14.1.1 (20251213.1925)
 -->
<!-- Pages: 1 -->
<svg width="470pt" height="368pt"
 viewBox="0.00 0.00 470.00 368.00" xmlns="http://www.w3.org/2000/svg" xmlns:xlink="http://www.w3.org/1999/xlink">
<g id="graph0" class="graph" transform="scale(1 1) rotate(0) translate(4 364)">
<polygon fill="white" stroke="none" points="-4,4 -4,-364 465.85,-364 465.85,4 -4,4"/>
<!-- n0 -->
<g id="node1" class="node">
<title>n0</title>
<ellipse fill="#008080" stroke="black" cx="73.65" cy="-175" rx="5.4" ry="5.4"/>
<text xml:space="preserve" text-anchor="middle" x="34.12" y="-160.1" font-family="Helvetica,sans-Serif" font-size="10.00">Commonwealth</text>
</g>
<!-- n1 -->
<g id="node2" class="node">
<title>n1</title>
<ellipse fill="#6c757d" stroke="black" cx="243.45" cy="-234" rx="5.4" ry="5.4"/>
<text xml:space="preserve" text-anchor="middle" x="226.43" y="-219.1" font-family="Helvetica,sans-Serif" font-size="10.00">State</text>
</g>
<!-- n0&#45;&gt;n1 -->
<g id="edge1" class="edge">
<title>n0&#45;&gt;n1</title>
<path fill="none" stroke="black" d="M79.14,-176.58C100.31,-184.02 190.65,-215.79 227.1,-228.6"/>
<polygon fill="black" stroke="black" points="225.85,-231.87 236.44,-231.89 228.17,-225.27 225.85,-231.87"/>
<text xml:space="preserve" text-anchor="middle" x="158.55" y="-214.98" font-family="Helvetica,sans-Serif" font-size="10.00"> Cooperate </text>
</g>
<!-- n2 -->
<g id="node3" class="node">
<title>n2</title>
<ellipse fill="#6c757d" stroke="black" cx="243.45" cy="-126" rx="5.4" ry="5.4"/>
<text xml:space="preserve" text-anchor="middle" x="226.43" y="-111.1" font-family="Helvetica,sans-Serif" font-size="10.00">State</text>
</g>
<!-- n0&#45;&gt;n2 -->
<g id="edge2" class="edge">
<title>n0&#45;&gt;n2</title>
<path fill="none" stroke="black" d="M77.85,-171.26C85.97,-162.1 108.44,-138.64 133.05,-129.75 164.58,-118.36 204.59,-120.88 226.43,-123.56"/>
<polygon fill="black" stroke="black" points="225.78,-127 236.17,-124.94 226.76,-120.07 225.78,-127"/>
<text xml:space="preserve" text-anchor="middle" x="158.55" y="-131.5" font-family="Helvetica,sans-Serif" font-size="10.00"> Defect </text>
</g>
<!-- n3 -->
<g id="node4" class="node">
<title>n3</title>
<path fill="#f8f9fa" stroke="black" d="M449.85,-360C449.85,-360 419.85,-360 419.85,-360 413.85,-360 407.85,-354 407.85,-348 407.85,-348 407.85,-336 407.85,-336 407.85,-330 413.85,-324 419.85,-324 419.85,-324 449.85,-324 449.85,-324 455.85,-324 461.85,-330 461.85,-336 461.85,-336 461.85,-348 461.85,-348 461.85,-354 455.85,-360 449.85,-360"/>
<text xml:space="preserve" text-anchor="middle" x="434.85" y="-343.2" font-family="Helvetica,sans-Serif" font-size="9.00">10.00</text>
<text xml:space="preserve" text-anchor="middle" x="434.85" y="-333.45" font-family="Helvetica,sans-Serif" font-size="9.00">10.00</text>
</g>
<!-- n1&#45;&gt;n3 -->
<g id="edge3" class="edge">
<title>n1&#45;&gt;n3</title>
<path fill="none" stroke="black" d="M248.76,-236.46C268.3,-247.6 349.62,-293.97 397.73,-321.4"/>
<polygon fill="black" stroke="black" points="395.72,-324.29 406.14,-326.2 399.19,-318.21 395.72,-324.29"/>
<text xml:space="preserve" text-anchor="middle" x="328.35" y="-296.22" font-family="Helvetica,sans-Serif" font-size="10.00"> Cooperate </text>
</g>
<!-- n4 -->
<g id="node5" class="node">
<title>n4</title>
<path fill="#f8f9fa" stroke="black" d="M449.85,-252C449.85,-252 419.85,-252 419.85,-252 413.85,-252 407.85,-246 407.85,-240 407.85,-240 407.85,-228 407.85,-228 407.85,-222 413.85,-216 419.85,-216 419.85,-216 449.85,-216 449.85,-216 455.85,-216 461.85,-222 461.85,-228 461.85,-228 461.85,-240 461.85,-240 461.85,-246 455.85,-252 449.85,-252"/>
<text xml:space="preserve" text-anchor="middle" x="434.85" y="-235.2" font-family="Helvetica,sans-Serif" font-size="9.00">0.00</text>
<text xml:space="preserve" text-anchor="middle" x="434.85" y="-225.45" font-family="Helvetica,sans-Serif" font-size="9.00">0.00</text>
</g>
<!-- n1&#45;&gt;n4 -->
<g id="edge4" class="edge">
<title>n1&#45;&gt;n4</title>
<path fill="none" stroke="black" d="M249.13,-234C269.09,-234 348.21,-234 396.19,-234"/>
<polygon fill="black" stroke="black" points="396.15,-237.5 406.15,-234 396.15,-230.5 396.15,-237.5"/>
<text xml:space="preserve" text-anchor="middle" x="328.35" y="-235.75" font-family="Helvetica,sans-Serif" font-size="10.00"> Defect </text>
</g>
<!-- n5 -->
<g id="node6" class="node">
<title>n5</title>
<path fill="#f8f9fa" stroke="black" d="M449.85,-144C449.85,-144 419.85,-144 419.85,-144 413.85,-144 407.85,-138 407.85,-132 407.85,-132 407.85,-120 407.85,-120 407.85,-114 413.85,-108 419.85,-108 419.85,-108 449.85,-108 449.85,-108 455.85,-108 461.85,-114 461.85,-120 461.85,-120 461.85,-132 461.85,-132 461.85,-138 455.85,-144 449.85,-144"/>
<text xml:space="preserve" text-anchor="middle" x="434.85" y="-127.2" font-family="Helvetica,sans-Serif" font-size="9.00">0.00</text>
<text xml:space="preserve" text-anchor="middle" x="434.85" y="-117.45" font-family="Helvetica,sans-Serif" font-size="9.00">0.00</text>
</g>
<!-- n2&#45;&gt;n5 -->
<g id="edge5" class="edge">
<title>n2&#45;&gt;n5</title>
<path fill="none" stroke="black" d="M249.13,-126C269.09,-126 348.21,-126 396.19,-126"/>
<polygon fill="black" stroke="black" points="396.15,-129.5 406.15,-126 396.15,-122.5 396.15,-129.5"/>
<text xml:space="preserve" text-anchor="middle" x="328.35" y="-127.75" font-family="Helvetica,sans-Serif" font-size="10.00"> Cooperate </text>
</g>
<!-- n6 -->
<g id="node7" class="node">
<title>n6</title>
<path fill="#f8f9fa" stroke="black" d="M449.85,-36C449.85,-36 419.85,-36 419.85,-36 413.85,-36 407.85,-30 407.85,-24 407.85,-24 407.85,-12 407.85,-12 407.85,-6 413.85,0 419.85,0 419.85,0 449.85,0 449.85,0 455.85,0 461.85,-6 461.85,-12 461.85,-12 461.85,-24 461.85,-24 461.85,-30 455.85,-36 449.85,-36"/>
<text xml:space="preserve" text-anchor="middle" x="434.85" y="-19.2" font-family="Helvetica,sans-Serif" font-size="9.00">5.00</text>
<text xml:space="preserve" text-anchor="middle" x="434.85" y="-9.45" font-family="Helvetica,sans-Serif" font-size="9.00">5.00</text>
</g>
<!-- n2&#45;&gt;n6 -->
<g id="edge6" class="edge">
<title>n2&#45;&gt;n6</title>
<path fill="none" stroke="black" d="M248.76,-123.54C268.3,-112.4 349.62,-66.03 397.73,-38.6"/>
<polygon fill="black" stroke="black" points="399.19,-41.79 406.14,-33.8 395.72,-35.71 399.19,-41.79"/>
<text xml:space="preserve" text-anchor="middle" x="328.35" y="-92.82" font-family="Helvetica,sans-Serif" font-size="10.00"> Defect </text>
</g>
</g>
</svg>
