<?xml version="1.0" encoding="UTF-8" standalone="no"?>
<!DOCTYPE svg PUBLIC "-//W3C//DTD SVG 1.1//EN"
 "http://www.w3.org/Graphics/SVG/1.1/DTD/svg11.dtd">
<!-- Generated by graphviz version 14.1.1 (20251213.1925)
 -->
<!-- Title: MermaidConverted Pages: 1 -->
<svg width="457pt" height="430pt"
 viewBox="0.00 0.00 457.00 430.00" xmlns="http://www.w3.org/2000/svg" xmlns:xlink="http://www.w3.org/1999/xlink">
<g id="graph0" class="graph" transform="scale(1 1) rotate(0) translate(4 426.25)">
<title>MermaidConverted</title>
<polygon fill="white" stroke="none" points="-4,4 -4,-426.25 452.75,-426.25 452.75,4 -4,4"/>
<text xml:space="preserve" text-anchor="middle" x="224.38" y="-406.85" font-family="Times,serif" font-size="12.00">Mermaid Chart &#45; Create complex, visual diagrams with text.&#45;2025&#45;12&#45;18&#45;203230_improved</text>
<!-- F1 -->
<g id="node1" class="node">
<title>F1</title>
<path fill="#f7f7f7" stroke="#555555" d="M304,-36C304,-36 144.75,-36 144.75,-36 138.75,-36 132.75,-30 132.75,-24 132.75,-24 132.75,-12 132.75,-12 132.75,-6 138.75,0 144.75,0 144.75,0 304,0 304,0 310,0 316,-6 316,-12 316,-12 316,-24 316,-24 316,-30 310,-36 304,-36"/>
<text xml:space="preserve" text-anchor="middle" x="224.38" y="-19.55" font-family="Inter" font-size="11.00">Pooled/Regional funding pilots</text>
<text xml:space="preserve" text-anchor="middle" x="224.38" y="-7.55" font-family="Inter" font-size="11.00">(shared accountability + outcomes)</text>
</g>
<!-- F2 -->
<g id="node2" class="node">
<title>F2</title>
<path fill="#f7f7f7" stroke="#555555" d="M291.62,-98C291.62,-98 157.12,-98 157.12,-98 151.12,-98 145.12,-92 145.12,-86 145.12,-86 145.12,-66 145.12,-66 145.12,-60 151.12,-54 157.12,-54 157.12,-54 291.62,-54 291.62,-54 297.62,-54 303.62,-60 303.62,-66 303.62,-66 303.62,-86 303.62,-86 303.62,-92 297.62,-98 291.62,-98"/>
<text xml:space="preserve" text-anchor="middle" x="224.38" y="-83.55" font-family="Inter" font-size="11.00">Integrated clinical governance</text>
<text xml:space="preserve" text-anchor="middle" x="224.38" y="-71.55" font-family="Inter" font-size="11.00">(end&#45;to&#45;end responsibility;</text>
<text xml:space="preserve" text-anchor="middle" x="224.38" y="-59.55" font-family="Inter" font-size="11.00">data/reporting)</text>
</g>
<!-- F3 -->
<g id="node3" class="node">
<title>F3</title>
<path fill="#f7f7f7" stroke="#555555" d="M323.12,-152C323.12,-152 125.62,-152 125.62,-152 119.63,-152 113.62,-146 113.62,-140 113.62,-140 113.62,-128 113.62,-128 113.62,-122 119.62,-116 125.62,-116 125.62,-116 323.12,-116 323.12,-116 329.12,-116 335.12,-122 335.12,-128 335.12,-128 335.12,-140 335.12,-140 335.12,-146 329.12,-152 323.12,-152"/>
<text xml:space="preserve" text-anchor="middle" x="224.38" y="-135.55" font-family="Inter" font-size="11.00">Middle&#45;tier workforce + subacute pathways</text>
<text xml:space="preserve" text-anchor="middle" x="224.38" y="-123.55" font-family="Inter" font-size="11.00">(unlock discharge)</text>
</g>
<!-- I -->
<g id="node4" class="node">
<title>I</title>
<path fill="#f7f7f7" stroke="#555555" d="M272.5,-214C272.5,-214 176.25,-214 176.25,-214 170.25,-214 164.25,-208 164.25,-202 164.25,-202 164.25,-182 164.25,-182 164.25,-176 170.25,-170 176.25,-170 176.25,-170 272.5,-170 272.5,-170 278.5,-170 284.5,-176 284.5,-182 284.5,-182 284.5,-202 284.5,-202 284.5,-208 278.5,-214 272.5,-214"/>
<text xml:space="preserve" text-anchor="middle" x="224.38" y="-199.55" font-family="Inter" font-size="11.00">Split incentives</text>
<text xml:space="preserve" text-anchor="middle" x="224.38" y="-187.55" font-family="Inter" font-size="11.00">(cost&#45;shifting;</text>
<text xml:space="preserve" text-anchor="middle" x="224.38" y="-175.55" font-family="Inter" font-size="11.00">no end&#45;to&#45;end owner)</text>
</g>
<!-- R -->
<g id="node5" class="node">
<title>R</title>
<path fill="#f7f7f7" stroke="#555555" d="M285.62,-276C285.62,-276 163.12,-276 163.12,-276 157.12,-276 151.12,-270 151.12,-264 151.12,-264 151.12,-244 151.12,-244 151.12,-238 157.12,-232 163.12,-232 163.12,-232 285.62,-232 285.62,-232 291.62,-232 297.62,-238 297.62,-244 297.62,-244 297.62,-264 297.62,-264 297.62,-270 291.62,-276 285.62,-276"/>
<text xml:space="preserve" text-anchor="middle" x="224.38" y="-261.55" font-family="Inter" font-size="11.00">Clinical risk</text>
<text xml:space="preserve" text-anchor="middle" x="224.38" y="-249.55" font-family="Inter" font-size="11.00">(ED overcrowding, delays,</text>
<text xml:space="preserve" text-anchor="middle" x="224.38" y="-237.55" font-family="Inter" font-size="11.00">staff harm, adverse events)</text>
</g>
<!-- T -->
<g id="node6" class="node">
<title>T</title>
<path fill="#f7f7f7" stroke="#555555" d="M284.12,-338C284.12,-338 164.62,-338 164.62,-338 158.62,-338 152.62,-332 152.62,-326 152.62,-326 152.62,-306 152.62,-306 152.62,-300 158.62,-294 164.62,-294 164.62,-294 284.12,-294 284.12,-294 290.12,-294 296.12,-300 296.12,-306 296.12,-306 296.12,-326 296.12,-326 296.12,-332 290.12,-338 284.12,-338"/>
<text xml:space="preserve" text-anchor="middle" x="224.38" y="-323.55" font-family="Inter" font-size="11.00">NHRA funding terms</text>
<text xml:space="preserve" text-anchor="middle" x="224.38" y="-311.55" font-family="Inter" font-size="11.00">(price basis, caps,</text>
<text xml:space="preserve" text-anchor="middle" x="224.38" y="-299.55" font-family="Inter" font-size="11.00">nominal vs effective share)</text>
</g>
<!-- X -->
<g id="node7" class="node">
<title>X</title>
<path fill="#f7f7f7" stroke="#555555" d="M290.88,-400C290.88,-400 157.88,-400 157.88,-400 151.88,-400 145.88,-394 145.88,-388 145.88,-388 145.88,-368 145.88,-368 145.88,-362 151.88,-356 157.88,-356 157.88,-356 290.88,-356 290.88,-356 296.88,-356 302.88,-362 302.88,-368 302.88,-368 302.88,-388 302.88,-388 302.88,-394 296.88,-400 290.88,-400"/>
<text xml:space="preserve" text-anchor="middle" x="224.38" y="-385.55" font-family="Inter" font-size="11.00">Exit block</text>
<text xml:space="preserve" text-anchor="middle" x="224.38" y="-373.55" font-family="Inter" font-size="11.00">(discharge failure across</text>
<text xml:space="preserve" text-anchor="middle" x="224.38" y="-361.55" font-family="Inter" font-size="11.00">Aged Care/NDIS/community)</text>
</g>
</g>
</svg>
