<?xml version="1.0" encoding="UTF-8" standalone="no"?>
<!DOCTYPE svg PUBLIC "-//W3C//DTD SVG 1.1//EN"
 "http://www.w3.org/Graphics/SVG/1.1/DTD/svg11.dtd">
<!-- Generated by graphviz version 14.1.1 (20251213.1925)
 -->
<!-- Title: MermaidConverted Pages: 1 -->
<svg width="406pt" height="768pt"
 viewBox="0.00 0.00 406.00 768.00" xmlns="http://www.w3.org/2000/svg" xmlns:xlink="http://www.w3.org/1999/xlink">
<g id="graph0" class="graph" transform="scale(1 1) rotate(0) translate(4 764.25)">
<title>MermaidConverted</title>
<polygon fill="white" stroke="none" points="-4,4 -4,-764.25 401.75,-764.25 401.75,4 -4,4"/>
<text xml:space="preserve" text-anchor="middle" x="198.88" y="-744.85" font-family="Times,serif" font-size="12.00">Mermaid Chart &#45; Create complex, visual diagrams with text.&#45;2025&#45;12&#45;18&#45;204129</text>
<!-- AgedCare -->
<g id="node1" class="node">
<title>AgedCare</title>
<path fill="#f7f7f7" stroke="#555555" d="M298.38,-36C298.38,-36 99.38,-36 99.38,-36 93.37,-36 87.38,-30 87.38,-24 87.38,-24 87.38,-12 87.38,-12 87.38,-6 93.38,0 99.38,0 99.38,0 298.38,0 298.38,0 304.38,0 310.38,-6 310.38,-12 310.38,-12 310.38,-24 310.38,-24 310.38,-30 304.38,-36 298.38,-36"/>
<text xml:space="preserve" text-anchor="middle" x="198.88" y="-13.55" font-family="Inter" font-size="11.00">Aged care (places, pricing, market settings)</text>
</g>
<!-- Amb -->
<g id="node2" class="node">
<title>Amb</title>
<path fill="#f7f7f7" stroke="#555555" d="M245.88,-90C245.88,-90 151.88,-90 151.88,-90 145.88,-90 139.88,-84 139.88,-78 139.88,-78 139.88,-66 139.88,-66 139.88,-60 145.88,-54 151.88,-54 151.88,-54 245.88,-54 245.88,-54 251.88,-54 257.88,-60 257.88,-66 257.88,-66 257.88,-78 257.88,-78 257.88,-84 251.88,-90 245.88,-90"/>
<text xml:space="preserve" text-anchor="middle" x="198.88" y="-67.55" font-family="Inter" font-size="11.00">Ambulance / ramping</text>
</g>
<!-- Bed_Occ -->
<g id="node3" class="node">
<title>Bed_Occ</title>
<path fill="#f7f7f7" stroke="#555555" d="M281.12,-144C281.12,-144 116.63,-144 116.63,-144 110.62,-144 104.62,-138 104.62,-132 104.62,-132 104.62,-120 104.62,-120 104.62,-114 110.62,-108 116.62,-108 116.62,-108 281.12,-108 281.12,-108 287.12,-108 293.12,-114 293.12,-120 293.12,-120 293.12,-132 293.12,-132 293.12,-138 287.12,-144 281.12,-144"/>
<text xml:space="preserve" text-anchor="middle" x="198.88" y="-121.55" font-family="Inter" font-size="11.00">Bed occupancy pressure (long&#45;stay)</text>
</g>
<!-- ED -->
<g id="node4" class="node">
<title>ED</title>
<path fill="#f7f7f7" stroke="#555555" d="M252.25,-198C252.25,-198 145.5,-198 145.5,-198 139.5,-198 133.5,-192 133.5,-186 133.5,-186 133.5,-174 133.5,-174 133.5,-168 139.5,-162 145.5,-162 145.5,-162 252.25,-162 252.25,-162 258.25,-162 264.25,-168 264.25,-174 264.25,-174 264.25,-186 264.25,-186 264.25,-192 258.25,-198 252.25,-198"/>
<text xml:space="preserve" text-anchor="middle" x="198.88" y="-175.55" font-family="Inter" font-size="11.00">Emergency Department</text>
</g>
<!-- ED_Pres -->
<g id="node5" class="node">
<title>ED_Pres</title>
<path fill="#f7f7f7" stroke="#555555" d="M285.62,-252C285.62,-252 112.12,-252 112.12,-252 106.13,-252 100.12,-246 100.12,-240 100.12,-240 100.12,-228 100.12,-228 100.12,-222 106.12,-216 112.12,-216 112.12,-216 285.62,-216 285.62,-216 291.62,-216 297.62,-222 297.62,-228 297.62,-228 297.62,-240 297.62,-240 297.62,-246 291.62,-252 285.62,-252"/>
<text xml:space="preserve" text-anchor="middle" x="198.88" y="-229.55" font-family="Inter" font-size="11.00">ED presentations (avoidable demand)</text>
</g>
<!-- GP -->
<g id="node6" class="node">
<title>GP</title>
<path fill="#f7f7f7" stroke="#555555" d="M249.25,-306C249.25,-306 148.5,-306 148.5,-306 142.5,-306 136.5,-300 136.5,-294 136.5,-294 136.5,-282 136.5,-282 136.5,-276 142.5,-270 148.5,-270 148.5,-270 249.25,-270 249.25,-270 255.25,-270 261.25,-276 261.25,-282 261.25,-282 261.25,-294 261.25,-294 261.25,-300 255.25,-306 249.25,-306"/>
<text xml:space="preserve" text-anchor="middle" x="198.88" y="-283.55" font-family="Inter" font-size="11.00">General practice policy</text>
</g>
<!-- Gap1 -->
<g id="node7" class="node">
<title>Gap1</title>
<path fill="#f7f7f7" stroke="#555555" d="M254.12,-360C254.12,-360 143.62,-360 143.62,-360 137.62,-360 131.62,-354 131.62,-348 131.62,-348 131.62,-336 131.62,-336 131.62,-330 137.62,-324 143.62,-324 143.62,-324 254.12,-324 254.12,-324 260.12,-324 266.12,-330 266.12,-336 266.12,-336 266.12,-348 266.12,-348 266.12,-354 260.12,-360 254.12,-360"/>
<text xml:space="preserve" text-anchor="middle" x="198.88" y="-337.55" font-family="Inter" font-size="11.00">Primary care access gap</text>
</g>
<!-- Gap2 -->
<g id="node8" class="node">
<title>Gap2</title>
<path fill="#f7f7f7" stroke="#555555" d="M265.38,-414C265.38,-414 132.38,-414 132.38,-414 126.38,-414 120.38,-408 120.38,-402 120.38,-402 120.38,-390 120.38,-390 120.38,-384 126.38,-378 132.38,-378 132.38,-378 265.38,-378 265.38,-378 271.38,-378 277.38,-384 277.38,-390 277.38,-390 277.38,-402 277.38,-402 277.38,-408 271.38,-414 265.38,-414"/>
<text xml:space="preserve" text-anchor="middle" x="198.88" y="-391.55" font-family="Inter" font-size="11.00">Aged care capacity constraint</text>
</g>
<!-- Gap3 -->
<g id="node9" class="node">
<title>Gap3</title>
<path fill="#f7f7f7" stroke="#555555" d="M272.12,-468C272.12,-468 125.63,-468 125.63,-468 119.62,-468 113.62,-462 113.62,-456 113.62,-456 113.62,-444 113.62,-444 113.62,-438 119.62,-432 125.62,-432 125.62,-432 272.12,-432 272.12,-432 278.12,-432 284.12,-438 284.12,-444 284.12,-444 284.12,-456 284.12,-456 284.12,-462 278.12,-468 272.12,-468"/>
<text xml:space="preserve" text-anchor="middle" x="198.88" y="-445.55" font-family="Inter" font-size="11.00">NDIS supports delay / mismatch</text>
</g>
<!-- Hosp_Budget -->
<g id="node10" class="node">
<title>Hosp_Budget</title>
<path fill="#f7f7f7" stroke="#555555" d="M248.12,-522C248.12,-522 149.62,-522 149.62,-522 143.62,-522 137.62,-516 137.62,-510 137.62,-510 137.62,-498 137.62,-498 137.62,-492 143.62,-486 149.62,-486 149.62,-486 248.12,-486 248.12,-486 254.12,-486 260.12,-492 260.12,-498 260.12,-498 260.12,-510 260.12,-510 260.12,-516 254.12,-522 248.12,-522"/>
<text xml:space="preserve" text-anchor="middle" x="198.88" y="-499.55" font-family="Inter" font-size="11.00">State hospital budgets</text>
</g>
<!-- MBS -->
<g id="node11" class="node">
<title>MBS</title>
<path fill="#f7f7f7" stroke="#555555" d="M234.25,-576C234.25,-576 163.5,-576 163.5,-576 157.5,-576 151.5,-570 151.5,-564 151.5,-564 151.5,-552 151.5,-552 151.5,-546 157.5,-540 163.5,-540 163.5,-540 234.25,-540 234.25,-540 240.25,-540 246.25,-546 246.25,-552 246.25,-552 246.25,-564 246.25,-564 246.25,-570 240.25,-576 234.25,-576"/>
<text xml:space="preserve" text-anchor="middle" x="198.88" y="-553.55" font-family="Inter" font-size="11.00">Medicare (MBS)</text>
</g>
<!-- NDIS -->
<g id="node12" class="node">
<title>NDIS</title>
<path fill="#f7f7f7" stroke="#555555" d="M275.12,-630C275.12,-630 122.62,-630 122.62,-630 116.63,-630 110.62,-624 110.62,-618 110.62,-618 110.62,-606 110.62,-606 110.62,-600 116.62,-594 122.62,-594 122.62,-594 275.12,-594 275.12,-594 281.12,-594 287.12,-600 287.12,-606 287.12,-606 287.12,-618 287.12,-618 287.12,-624 281.12,-630 275.12,-630"/>
<text xml:space="preserve" text-anchor="middle" x="198.88" y="-607.55" font-family="Inter" font-size="11.00">NDIS (supports, plans, providers)</text>
</g>
<!-- Tax -->
<g id="node13" class="node">
<title>Tax</title>
<path fill="#f7f7f7" stroke="#555555" d="M229.38,-684C229.38,-684 168.38,-684 168.38,-684 162.38,-684 156.38,-678 156.38,-672 156.38,-672 156.38,-660 156.38,-660 156.38,-654 162.38,-648 168.38,-648 168.38,-648 229.38,-648 229.38,-648 235.38,-648 241.38,-654 241.38,-660 241.38,-660 241.38,-672 241.38,-672 241.38,-678 235.38,-684 229.38,-684"/>
<text xml:space="preserve" text-anchor="middle" x="198.88" y="-661.55" font-family="Inter" font-size="11.00">Tax / Revenue</text>
</g>
<!-- Wards -->
<g id="node14" class="node">
<title>Wards</title>
<path fill="#f7f7f7" stroke="#555555" d="M231.62,-738C231.62,-738 166.12,-738 166.12,-738 160.12,-738 154.12,-732 154.12,-726 154.12,-726 154.12,-714 154.12,-714 154.12,-708 160.12,-702 166.12,-702 166.12,-702 231.62,-702 231.62,-702 237.62,-702 243.62,-708 243.62,-714 243.62,-714 243.62,-726 243.62,-726 243.62,-732 237.62,-738 231.62,-738"/>
<text xml:space="preserve" text-anchor="middle" x="198.88" y="-715.55" font-family="Inter" font-size="11.00">Inpatient wards</text>
</g>
</g>
</svg>
