<?xml version="1.0" encoding="UTF-8" standalone="no"?>
<!DOCTYPE svg PUBLIC "-//W3C//DTD SVG 1.1//EN"
 "http://www.w3.org/Graphics/SVG/1.1/DTD/svg11.dtd">
<!-- Generated by graphviz version 14.1.1 (20251213.1925)
 -->
<!-- Pages: 1 -->
<svg width="713pt" height="152pt"
 viewBox="0.00 0.00 713.00 152.00" xmlns="http://www.w3.org/2000/svg" xmlns:xlink="http://www.w3.org/1999/xlink">
<g id="graph0" class="graph" transform="scale(1 1) rotate(0) translate(4 147.8)">
<polygon fill="white" stroke="none" points="-4,4 -4,-147.8 708.79,-147.8 708.79,4 -4,4"/>
<!-- 5993242864 -->
<g id="node1" class="node">
<title>5993242864</title>
<ellipse fill="none" stroke="black" cx="70.8" cy="-73" rx="70.8" ry="70.8"/>
<text xml:space="preserve" text-anchor="middle" x="70.8" y="-67.95" font-family="Times,serif" font-size="14.00">Commonwealth</text>
</g>
<!-- 5994774064 -->
<g id="node2" class="node">
<title>5994774064</title>
<ellipse fill="none" stroke="black" cx="206.94" cy="-102" rx="29.34" ry="29.34"/>
<text xml:space="preserve" text-anchor="middle" x="206.94" y="-96.95" font-family="Times,serif" font-size="14.00">State</text>
</g>
<!-- 5993242864&#45;&gt;5994774064 -->
<g id="edge1" class="edge">
<title>5993242864&#45;&gt;5994774064</title>
<path fill="none" stroke="black" d="M140.44,-87.84C149.47,-89.79 158.46,-91.73 166.75,-93.53"/>
<polygon fill="black" stroke="black" points="165.96,-96.94 176.47,-95.63 167.44,-90.09 165.96,-96.94"/>
</g>
<!-- 5994774448 -->
<g id="node4" class="node">
<title>5994774448</title>
<ellipse fill="none" stroke="black" cx="369.16" cy="-45" rx="29.34" ry="29.34"/>
<text xml:space="preserve" text-anchor="middle" x="369.16" y="-39.95" font-family="Times,serif" font-size="14.00">State</text>
</g>
<!-- 5993242864&#45;&gt;5994774448 -->
<g id="edge4" class="edge">
<title>5993242864&#45;&gt;5994774448</title>
<path fill="none" stroke="black" d="M141.66,-66.4C199.87,-60.9 280.72,-53.26 328.42,-48.75"/>
<polygon fill="black" stroke="black" points="328.67,-52.25 338.3,-47.82 328.01,-45.28 328.67,-52.25"/>
</g>
<!-- 5994763824 -->
<g id="node3" class="node">
<title>5994763824</title>
<polygon fill="none" stroke="black" points="466.04,-128 272.29,-128 272.29,-92 466.04,-92 466.04,-128"/>
<text xml:space="preserve" text-anchor="middle" x="369.16" y="-104.95" font-family="Times,serif" font-size="14.00">Commonwealth:1.30, State:1.30</text>
</g>
<!-- 5994774064&#45;&gt;5994763824 -->
<g id="edge2" class="edge">
<title>5994774064&#45;&gt;5994763824</title>
<path fill="none" stroke="black" d="M236.59,-103.43C243.72,-103.79 251.8,-104.19 260.36,-104.62"/>
<polygon fill="black" stroke="black" points="260.18,-108.11 270.34,-105.12 260.53,-101.12 260.18,-108.11"/>
</g>
<!-- 5994774064&#45;&gt;5994774448 -->
<g id="edge3" class="edge">
<title>5994774064&#45;&gt;5994774448</title>
<path fill="none" stroke="black" d="M235.12,-92.33C261.33,-83.01 301.21,-68.82 330.47,-58.41"/>
<polygon fill="black" stroke="black" points="331.44,-61.78 339.69,-55.13 329.1,-55.18 331.44,-61.78"/>
</g>
<!-- 5994772272 -->
<g id="node5" class="node">
<title>5994772272</title>
<polygon fill="none" stroke="black" points="700.29,-90 506.54,-90 506.54,-54 700.29,-54 700.29,-90"/>
<text xml:space="preserve" text-anchor="middle" x="603.41" y="-66.95" font-family="Times,serif" font-size="14.00">Commonwealth:1.42, State:0.10</text>
</g>
<!-- 5994774448&#45;&gt;5994772272 -->
<g id="edge5" class="edge">
<title>5994774448&#45;&gt;5994772272</title>
<path fill="none" stroke="black" d="M398.64,-48.31C423.01,-51.14 459.69,-55.41 495.25,-59.54"/>
<polygon fill="black" stroke="black" points="494.39,-62.97 504.73,-60.64 495.2,-56.01 494.39,-62.97"/>
</g>
<!-- 5994759856 -->
<g id="node6" class="node">
<title>5994759856</title>
<polygon fill="none" stroke="black" points="704.79,-36 502.04,-36 502.04,0 704.79,0 704.79,-36"/>
<text xml:space="preserve" text-anchor="middle" x="603.41" y="-12.95" font-family="Times,serif" font-size="14.00">Commonwealth:&#45;0.60, State:&#45;0.60</text>
</g>
<!-- 5994774448&#45;&gt;5994759856 -->
<g id="edge6" class="edge">
<title>5994774448&#45;&gt;5994759856</title>
<path fill="none" stroke="black" d="M398.64,-41.69C421.98,-38.98 456.6,-34.95 490.71,-30.99"/>
<polygon fill="black" stroke="black" points="490.73,-34.51 500.25,-29.88 489.92,-27.55 490.73,-34.51"/>
</g>
</g>
</svg>
